<?xml version="1.0" encoding="iso-8859-1"?>
<!-- Generator: Adobe Illustrator 19.0.0, SVG Export Plug-In . SVG Version: 6.00 Build 0)  -->
<svg version="1.1" id="Layer_1" xmlns="http://www.w3.org/2000/svg" xmlns:xlink="http://www.w3.org/1999/xlink" x="0px" y="0px"
	 viewBox="0 0 459.489 459.489" style="enable-background:new 0 0 459.489 459.489;" xml:space="preserve">
<g>
	<g>
		<g>
			<path d="M406.619,132.325H52.87c-8.284,0-15,6.716-15,15v286.513c0,8.284,6.716,15,15,15h353.749c8.284,0,15-6.716,15-15V147.325
				C421.619,139.041,414.903,132.325,406.619,132.325z M391.619,418.838H67.87V162.325h323.749V418.838z"/>
			<path d="M444.489,10.651H15c-8.284,0-15,6.716-15,15v60.225c0,8.284,6.716,15,15,15h429.489c8.284,0,15-6.716,15-15V25.651
				C459.489,17.367,452.773,10.651,444.489,10.651z M429.489,70.876H30V40.651h399.489V70.876z"/>
			<path d="M177.334,262.173h104.82c8.284,0,15-6.716,15-15v-43.562c0-8.284-6.716-15-15-15h-104.82c-8.284,0-15,6.716-15,15v43.562
				C162.334,255.457,169.05,262.173,177.334,262.173z M192.334,218.611h74.82v13.562h-74.82V218.611z"/>
		</g>
	</g>
</g>
<g>
</g>
<g>
</g>
<g>
</g>
<g>
</g>
<g>
</g>
<g>
</g>
<g>
</g>
<g>
</g>
<g>
</g>
<g>
</g>
<g>
</g>
<g>
</g>
<g>
</g>
<g>
</g>
<g>
</g>
</svg>
